<svg width="19" height="23" viewBox="0 0 19 23" fill="none" xmlns="http://www.w3.org/2000/svg">
<path d="M18.6456 1.45518C18.0909 2.86712 17.2022 4.89047 15.9857 7.53785C15.1536 9.32798 14.5548 10.5823 14.1955 11.282C13.5148 12.6939 12.8277 13.8979 12.1469 14.9001C10.8863 16.7785 10.0227 18.3354 9.54999 19.5771L9.83996 19.7662C10.6531 19.5078 11.3653 18.9216 11.9894 18.0076C12.6953 16.9865 13.1429 16.4066 13.332 16.2805H13.458C13.54 16.3877 13.5841 16.5074 13.5841 16.6335C13.5841 17.5286 12.8403 18.7388 11.359 20.2516C9.87776 21.7707 8.68645 22.5271 7.78508 22.5271C7.10433 22.5271 6.63159 22.3569 6.37315 22.0165C6.31012 21.9346 6.1273 21.4618 5.83104 20.6046C5.10616 21.8841 4.11026 22.5271 2.8496 22.5271C2.276 22.5271 1.77173 22.2812 1.3431 21.7896C0.914481 21.2979 0.700195 20.7621 0.700195 20.1885C0.700195 18.3732 2.20038 15.896 5.19444 12.757C6.80178 11.0677 8.26412 10.2294 9.58781 10.2294C9.758 10.2294 10.0605 10.3428 10.4829 10.5634C10.9115 10.7904 11.2204 10.9101 11.4158 10.929C11.504 10.8849 11.5734 10.7399 11.6427 10.4815C11.7246 10.1411 12.1028 9.18301 12.7647 7.60719C13.956 4.72029 14.9519 2.48892 15.7587 0.906797L17.5489 0.83747C18.0279 0.824863 18.3872 1.02656 18.6456 1.45518ZM10.798 11.8304C10.735 11.553 10.5396 11.4144 10.2181 11.4144C9.92189 11.4144 9.60041 11.553 9.26003 11.8304V11.7989C8.19477 12.675 7.18627 13.8159 6.24708 15.2279C5.1377 16.873 4.583 18.2471 4.583 19.3565C4.583 19.804 4.76579 20.031 5.12508 20.031C5.61673 20.031 6.64417 18.827 8.20108 16.4129C9.59411 14.2761 10.4577 12.7507 10.798 11.8304Z" fill="white"/>
</svg>
